<?xml version="1.0" encoding="utf-8"?>
<!-- Generator: Adobe Illustrator 18.0.0, SVG Export Plug-In . SVG Version: 6.00 Build 0)  -->
<!DOCTYPE svg PUBLIC "-//W3C//DTD SVG 1.1//EN" "http://www.w3.org/Graphics/SVG/1.1/DTD/svg11.dtd">
<svg version="1.1" id="Icon_Set" xmlns="http://www.w3.org/2000/svg" xmlns:xlink="http://www.w3.org/1999/xlink" x="0px" y="0px"
	 viewBox="0 0 256 256" style="enable-background:new 0 0 256 256;" xml:space="preserve">
<style type="text/css">
	.st0{fill:#4C4372;}
	.st1{fill:#F1C48B;}
	.st2{fill:#FFFFFF;}
	.st3{fill:#A3D0F1;}
	.st4{fill:#7BACF1;}
	.st5{fill:#D4E7F8;}
	.st6{fill:#FD919E;}
	.st7{fill:#D3E6F7;}
	.st8{fill:#E8677D;}
	.st9{fill:#D3E6F8;}
</style>
<g>
	<g>
		<circle class="st1" cx="128" cy="128" r="104.245"/>
	</g>
	<g>
		<path class="st2" d="M158.98,199.5H68.432c-3.741,0-6.774-3.033-6.774-6.774V63.274c0-3.741,3.033-6.774,6.774-6.774h90.547
			c3.741,0,6.774,3.033,6.774,6.774v129.453C165.753,196.467,162.721,199.5,158.98,199.5z"/>
	</g>
	<g>
		<path class="st7" d="M158.98,56.5h-14.5c3.741,0,6.774,3.033,6.774,6.774v129.453c0,3.741-3.033,6.774-6.774,6.774h14.5
			c3.741,0,6.774-3.033,6.774-6.774V63.274C165.753,59.533,162.721,56.5,158.98,56.5z"/>
	</g>
	<g>
		<path class="st0" d="M158.979,202.5H68.432c-5.389,0-9.773-4.385-9.773-9.773V63.273c0-5.389,4.384-9.773,9.773-9.773h90.547
			c5.389,0,9.773,4.385,9.773,9.773v129.453C168.753,198.115,164.368,202.5,158.979,202.5z M68.432,59.5
			c-2.081,0-3.773,1.692-3.773,3.773v129.453c0,2.081,1.693,3.773,3.773,3.773h90.547c2.081,0,3.773-1.692,3.773-3.773V63.273
			c0-2.081-1.692-3.773-3.773-3.773H68.432z"/>
	</g>
	<g>
		<path class="st6" d="M177.082,184.669l9.304,14.831l9.304-14.831v-81.194c0-2.472-2.004-4.475-4.475-4.475h-9.659
			c-2.472,0-4.475,2.004-4.475,4.475V184.669z"/>
	</g>
	<g>
		<path class="st4" d="M177.082,113.449v-9.974c0-2.471,2.004-4.475,4.475-4.475h9.659c2.472,0,4.475,2.004,4.475,4.475v9.973
			H177.082z"/>
	</g>
	<g>
		<polygon class="st0" points="186.386,199.5 181.557,191.803 191.215,191.803 		"/>
	</g>
	<g>
		<path class="st0" d="M206.341,139.855c-1.657,0-3-1.343-3-3v-18.453c0-1.077-0.876-1.953-1.953-1.953h-5.697c-1.657,0-3-1.343-3-3
			s1.343-3,3-3h5.697c4.386,0,7.953,3.567,7.953,7.953v18.453C209.341,138.513,207.998,139.855,206.341,139.855z"/>
	</g>
	<g>
		<path class="st0" d="M195.69,187.669h-18.608c-1.657,0-3-1.343-3-3s1.343-3,3-3h18.608c1.657,0,3,1.343,3,3
			S197.348,187.669,195.69,187.669z"/>
	</g>
	<g>
		<path class="st0" d="M195.69,116.448h-18.608c-1.657,0-3-1.343-3-3v-9.974c0-4.121,3.354-7.475,7.475-7.475h9.659
			c4.121,0,7.475,3.354,7.475,7.476v9.973C198.69,115.105,197.348,116.448,195.69,116.448z M180.082,110.448h12.608v-6.973
			c0-0.813-0.661-1.476-1.475-1.476h-9.659c-0.813,0-1.475,0.661-1.475,1.475V110.448z"/>
	</g>
	<g>
		<path class="st0" d="M186.386,202.5L186.386,202.5c-1.032,0-1.992-0.531-2.541-1.406l-9.304-14.831
			c-0.3-0.478-0.459-1.03-0.459-1.594v-81.193c0-4.122,3.354-7.476,7.475-7.476h9.659c4.121,0,7.475,3.354,7.475,7.476v81.193
			c0,0.564-0.159,1.116-0.459,1.595l-9.305,14.831C188.378,201.969,187.418,202.5,186.386,202.5z M180.082,183.806l6.304,10.049
			l6.305-10.049v-80.33c0-0.813-0.661-1.476-1.475-1.476h-9.659c-0.813,0-1.475,0.662-1.475,1.476V183.806z"/>
	</g>
	<g>
		<path class="st0" d="M84.184,101.253L84.184,101.253c-0.796,0-1.559-0.316-2.122-0.879l-7.222-7.223
			c-1.171-1.172-1.171-3.071,0-4.242c1.171-1.172,3.071-1.172,4.243,0l5.101,5.101l9.879-9.878c1.171-1.172,3.071-1.172,4.242,0
			c1.172,1.171,1.172,3.071,0,4.242l-12,12C85.743,100.937,84.979,101.253,84.184,101.253z"/>
	</g>
	<g>
		<path class="st0" d="M84.184,137L84.184,137c-0.796,0-1.559-0.316-2.122-0.879l-7.222-7.223c-1.171-1.172-1.171-3.071,0-4.242
			c1.171-1.173,3.071-1.171,4.243,0l5.101,5.101l9.879-9.878c1.171-1.172,3.071-1.172,4.242,0c1.172,1.171,1.172,3.071,0,4.242
			l-12,12C85.743,136.684,84.979,137,84.184,137z"/>
	</g>
	<g>
		<path class="st0" d="M84.184,172.747L84.184,172.747c-0.796,0-1.559-0.316-2.122-0.879l-7.222-7.223
			c-1.171-1.172-1.171-3.071,0-4.242c1.171-1.172,3.071-1.172,4.243,0l5.101,5.101l9.879-9.878c1.171-1.172,3.071-1.172,4.242,0
			c1.172,1.171,1.172,3.071,0,4.242l-12,12C85.743,172.431,84.979,172.747,84.184,172.747z"/>
	</g>
	<g>
		<path class="st0" d="M152.253,95.444h-46.791c-1.657,0-3-1.343-3-3s1.343-3,3-3h46.791c1.657,0,3,1.343,3,3
			S153.91,95.444,152.253,95.444z"/>
	</g>
	<g>
		<path class="st0" d="M152.253,131h-46.791c-1.657,0-3-1.343-3-3s1.343-3,3-3h46.791c1.657,0,3,1.343,3,3S153.91,131,152.253,131z"
			/>
	</g>
	<g>
		<path class="st0" d="M152.253,168.326h-46.791c-1.657,0-3-1.343-3-3s1.343-3,3-3h46.791c1.657,0,3,1.343,3,3
			S153.91,168.326,152.253,168.326z"/>
	</g>
</g>
</svg>
